# AST/ASF file generated using VICON BodyLanguage
# -----------------------------------------------
:version 1.10
:name VICON
:units
  mass 1.0
  length 0.45
  angle deg
:documentation
   .ast/.asf automatically generated from VICON data using
   VICON BodyBuilder and BodyLanguage model FoxedUp or BRILLIANT.MOD
:root
   order TX TY TZ RX RY RZ
   axis XYZ
   position 0 0 0  
   orientation 0 0 0 
:bonedata
  begin
     id 1 
     name lhipjoint
     direction 0.714689 -0.624256 0.315473 
     length 2.45343 
     axis 0 0 0  XYZ
  end
  begin
     id 2 
     name lfemur
     direction 0.34202 -0.939693 0  
     length 6.59069  
     axis 0 0 20  XYZ
    dof rx ry rz
    limits (-160.0 20.0)
           (-70.0 70.0)
           (-60.0 70.0)
  end
  begin
     id 3 
     name ltibia
     direction 0.34202 -0.939693 0   
     length 6.73476   
     axis 0 0 20   XYZ
    dof rx
    limits (-10.0 170.0)
  end
  begin
     id 4 
     name lfoot
     direction 0.0718085 -0.197292 0.977711   
     length 1.52607   
     axis -90 7.62852e-016 20   XYZ
    dof rx rz
    limits (-45.0 90.0)
           (-70.0 20.0)
  end
  begin
     id 5 
     name ltoes
     direction 1.53553e-011 -4.22024e-011 1   
     length 0.777832   
     axis -90 7.62852e-016 20   XYZ
    dof rx
    limits (-90.0 20.0)
  end
  begin
     id 6 
     name rhipjoint
     direction -0.727419 -0.612432 0.309497   
     length 2.50079  
     axis 0 0 0  XYZ 
  end
  begin
     id 7 
     name rfemur
     direction -0.34202 -0.939693 0   
     length 6.51665   
     axis 0 0 -20   XYZ
    dof rx ry rz
    limits (-160.0 20.0)
           (-70.0 70.0)
           (-70.0 60.0)
  end
  begin
     id 8 
     name rtibia
     direction -0.34202 -0.939693 0   
     length 6.48919   
     axis 0 0 -20   XYZ
    dof rx
    limits (-10.0 170.0)
 end
 begin
     id 9 
     name rfoot
     direction -0.112205 -0.308282 0.944655   
     length 1.68717  
     axis -90 -7.62852e-016 -20   XYZ
    dof rx rz
    limits (-45.0 90.0)
           (-20.0 70.0)
  end
  begin
     id 10 
     name rtoes
     direction -1.53583e-011 -4.21993e-011 1   
     length 0.846859   
     axis -90 -7.62852e-016 -20   XYZ
    dof rx
    limits (-90.0 20.0)
  end
  begin
     id 11 
     name lowerback
     direction -0.00119603 0.996364 -0.0851956   
     length 1.67242   
     axis 0 0 0   XYZ
    dof rx ry rz
    limits (-20.0 45.0)
           (-30.0 30.0)
           (-30.0 30.0)
  end
  begin
     id 12 
     name upperback
     direction -0.00531001 0.998318 0.0577248   
     length 1.64819   
     axis 0 0 0   XYZ
    dof rx ry rz
    limits (-20.0 45.0)
           (-30.0 30.0)
           (-30.0 30.0)
  end
  begin
     id 13 
     name thorax
     direction -0.00653676 0.995132 0.0983291   
     length 1.67429   
     axis 0 0 0   XYZ
    dof rx ry rz
    limits (-20.0 45.0)
           (-30.0 30.0)
           (-30.0 30.0)
  end
  begin
     id 14 
     name lowerneck
     direction 0.0141424 0.999886 0.00525412   
     length 1.59623   
     axis 0 0 0   XYZ
    dof rx ry rz
    limits (-20.0 45.0)
           (-30.0 30.0)
           (-30.0 30.0)
  end
  begin
     id 15 
     name upperneck
     direction -0.0640064 0.987178 -0.146232   
     length 1.59576   
     axis 0 0 0   XYZ
    dof rx ry rz
    limits (-20.0 45.0)
           (-30.0 30.0)
           (-30.0 30.0)
  end
  begin
     id 16
     name head
     direction -0.0222942 0.998496 -0.0500859  
     length 1.60959  
     axis 0 0 0   XYZ
    dof rx ry rz
    limits (-20.0 45.0)
           (-30.0 30.0)
           (-30.0 30.0)
  end
  begin
     id 17 
     name lclavicle
     direction 0.908549 0.392612 0.142806  
     length 2.80649  
     axis 0 0 0   XYZ
    dof ry rz
    limits (-20.0 10.0)
           (0.0 20.0)
  end
  begin
     id 18 
     name lhumerus
     direction 1 -4.48968e-011 1.08832e-028   
     length 4.2884   
     axis -180 -30 -90   XYZ
    dof rx ry rz
    limits (-60.0 90.0)
           (-90.0 90.0)
           (-90.0 90.0)
  end
  begin
     id 19
     name lradius
     direction 1 -4.48952e-011 -3.02642e-028   
     length 3.06552   
     axis -180 -30 -90   XYZ
    dof rx
    limits (-10.0 170.0)
  end
  begin
     id 20
     name lwrist
     direction 1 -4.49014e-011 1.58672e-027   
     length 1.53276   
     axis -1.65735e-015 90 90   XYZ
    dof ry
    limits (-180.0 0.0)
 end
  begin
     id 21 
     name lhand
     direction 1 -4.48928e-011 3.17344e-027   
     length 0.753045   
     axis -2.02492e-015 90 90   XYZ
    dof rx rz
    limits (-90.0 90.0)
           (-45.0 45.0)
  end
  begin
     id 22 
     name lfingers
     direction 1 -4.48958e-011 6.34687e-027   
     length 0.607124   
     axis -4.04985e-015 90 90   XYZ
    dof rx
    limits (0.0 90.0)
  end
  begin
     id 23
     name lthumb
     direction 0.707107 -6.34905e-011 0.707107   
     length 0.871712   
     axis -90 45 2.85299e-015   XYZ
    dof rx rz
    limits (-45.0 45.0)
           (-45.0 45.0)
  end
  begin
     id 24 
     name rclavicle
     direction -0.885098 0.45949 0.0739604   
     length 2.9478  
     axis 0 0 0   XYZ 
    dof ry rz
    limits (-10.0 20.0)
           (-20.0 0.0)
  end
  begin
     id 25 
     name rhumerus
     direction -1 -4.4898e-011 -2.61739e-027  
     length 4.52172   
     axis -180 30 90   XYZ
    dof rx ry rz
    limits (-90.0 60.0)
           (-90.0 90.0)
           (-90.0 90.0)
  end
  begin
     id 26 
     name rradius
     direction -1 -4.48945e-011 9.02552e-028   
     length 2.8914   
     axis -180 30 90   XYZ
    dof rx
    limits (-10.0 170.0)
  end
  begin
     id 27 
     name rwrist
     direction -1 -4.49018e-011 1.58672e-027   
     length 1.4457   
     axis -1.65735e-015 -90 -90   XYZ
    dof ry
    limits (-180.0 0.0)
  end
  begin
     id 28
     name rhand
     direction -1 -4.48825e-011 3.17344e-027   
     length 0.680541   
     axis -2.02492e-015 -90 -90   XYZ
    dof rx rz
    limits (-90.0 90.0)
           (-45.0 45.0)
  end
  begin
     id 29
     name rfingers
     direction -1 -4.49067e-011 6.34687e-027   
     length 0.54867   
     axis -4.04985e-015 -90 -90   XYZ
    dof rx
    limits (0.0 90.0)
  end
  begin
     id 30
     name rthumb
     direction -0.707107 -6.34833e-011 0.707107   
     length 0.787783   
     axis -90 -45 -2.85299e-015   XYZ
    dof rx rz
    limits (-45.0 45.0)
           (-45.0 45.0)
  end
:hierarchy
  begin
    root lhipjoint rhipjoint lowerback
    lhipjoint lfemur
    lfemur ltibia
    ltibia lfoot
    lfoot ltoes
    rhipjoint rfemur
    rfemur rtibia
    rtibia rfoot
    rfoot rtoes
    lowerback upperback
    upperback thorax
    thorax lowerneck lclavicle rclavicle
    lowerneck upperneck
    upperneck head
    lclavicle lhumerus
    lhumerus lradius
    lradius lwrist
    lwrist lhand lthumb
    lhand lfingers
    rclavicle rhumerus
    rhumerus rradius
    rradius rwrist
    rwrist rhand rthumb
    rhand rfingers
  end

#!OML:ASF E:\emotionWalksFemale\Project 1\Capture day 1\Session 1\Female1.ASF
:FULLY-SPECIFIED
:DEGREES
94
root 9.70534 16.4254 20.0648 -174.033 -66.8859 -176.924
lowerback 9.07548 7.38913 3.96532
upperback -5.0888 10.4279 -0.139422
thorax -9.77612 4.75408 -4.0727
lowerneck -11.2891 9.96825 6.55424
upperneck 5.25696 13.2794 -10.4113
head 4.55218 6.12636 -3.18414
rclavicle 4.88513e-014 0
rhumerus -5.92514 55.7812 -94.136
rradius 86.5295
rwrist 1.13109
rhand -1.68454 -53.7564
rfingers 7.12502
rthumb 23.9759 -82.2792
lclavicle 4.88513e-014 0
lhumerus -44.0339 -1.85337 72.1396
lradius 25.1911
lwrist -42.9463
lhand 4.98015 -23.8439
lfingers 7.12502
lthumb 30.351 3.6792
rfemur -6.04402 -10.8133 32.0356
rtibia 20.3252
rfoot -12.3757 -44.2767
rtoes 26.0774
lfemur -20.548 -10.6413 -18.9352
ltibia 23.4889
lfoot 10.4238 -7.42305
ltoes 19.9667
95
root 9.63746 16.6805 20.0006 -172.908 -71.3138 -178.542
lowerback 8.54706 7.46191 4.55702
upperback -5.06626 10.5132 -0.869416
thorax -9.18738 4.7706 -5.06434
lowerneck -11.2796 11.2079 6.89675
upperneck 6.32356 14.917 -9.44803
head 4.95689 6.97153 -2.74739
rclavicle -2.03879e-014 5.1684e-015
rhumerus -7.96363 56.216 -96.9168
rradius 85.9291
rwrist 1.46764
rhand -9.32155 -63.0908
rfingers 7.12502
rthumb 16.6369 92.3978
lclavicle -2.03879e-014 5.1684e-015
lhumerus -43.0504 -2.5352 72.4651
lradius 25.2552
lwrist -42.9843
lhand 6.96956 -23.8618
lfingers 7.12502
lthumb 32.2467 3.29431
rfemur -4.03363 -7.19884 31.4033
rtibia 17.5959
rfoot -18.7088 -47.1583
rtoes 39.8059
lfemur -19.4437 -14.6798 -18.8058
ltibia 20.415
lfoot 14.4146 2.76898
ltoes 46.0176
96
root 9.56908 16.9486 19.9372 -170.974 -75.8126 -180.835
lowerback 8.15079 7.60991 4.44203
upperback -5.21926 10.6558 -1.16897
thorax -9.07091 4.84397 -5.28383
lowerneck -11.0764 12.4638 8.49107
upperneck 7.84508 16.667 -10.4557
head 5.7621 7.77319 -3.03726
rclavicle 2.42758e-014 -2.06736e-014
rhumerus -10.8413 56.2902 -99.8778
rradius 85.1463
rwrist 2.31189
rhand -16.0419 -66.4841
rfingers 7.12502
rthumb 10.1597 96.2188
lclavicle 2.42758e-014 -2.06736e-014
lhumerus -42.5112 -3.38703 73.5807
lradius 25.4086
lwrist -41.9345
lhand 9.65893 -23.4003
lfingers 7.12502
lthumb 34.8028 3.20155
rfemur -2.51672 -2.77209 30.9225
rtibia 15.7828
rfoot -33.2848 -46.2842
rtoes 52.6027
lfemur -18.8284 -20.7862 -18.0396
ltibia 18.3053
lfoot 8.08975 13.8317
ltoes 53.5921
97
root 9.50223 17.1843 19.8701 -166.502 -80.3541 -185.587
lowerback 7.75804 7.72501 4.23996
upperback -5.44998 10.7417 -1.5224
thorax -9.05244 4.88602 -5.51477
lowerneck -10.8019 13.6103 10.2243
upperneck 9.43547 18.2455 -11.0581
head 6.58567 8.51961 -3.21765
rclavicle -6.71768e-014 -1.66979e-014
rhumerus -13.8514 56.1749 -102.778
rradius 84.4553
rwrist 3.26867
rhand -1.33288 -53.4981
rfingers 7.12502
rthumb 24.3131 -81.9761
lclavicle -6.71768e-014 -1.66979e-014
lhumerus -42.0355 -4.90954 74.8244
lradius 25.6992
lwrist -39.7699
lhand 13.5901 -22.7907
lfingers 7.12502
lthumb 38.5229 2.86435
rfemur -1.34604 2.15094 30.5268
rtibia 14.7719
rfoot -44.8347 -41.8782
rtoes 60.8996
lfemur -18.3563 -30.1879 -16.9983
ltibia 17.3397
lfoot -8.04362 17.2823
ltoes 59.9359
98
root 9.44984 17.3863 19.8305 -150.652 -84.9986 -201.807
lowerback 7.80618 7.72011 4.30275
upperback -5.67127 10.7074 -2.03573
thorax -9.21684 4.83506 -6.11131
lowerneck -10.1073 14.7522 11.1681
upperneck 10.5618 19.8422 -10.9276
head 7.07752 9.32687 -3.08201
rclavicle -8.08184e-014 5.1684e-015
rhumerus -16.6692 55.9963 -105.319
rradius 83.996
rwrist 4.01832
rhand -1.89996 -56.6707
rfingers 7.12502
rthumb 23.7693 -85.2205
lclavicle -8.08184e-014 5.1684e-015
lhumerus -41.4148 -6.28546 75.7744
lradius 25.8724
lwrist -38.2401
lhand 17.5136 -23.1575
lfingers 7.12502
lthumb 42.2122 1.36108
rfemur -0.517167 6.20191 29.9422
rtibia 14.4026
rfoot -46.868 -40.0015
rtoes 63.5414
lfemur -17.3268 -33.3574 -18.0808
ltibia 17.2966
lfoot -25.1909 5.64694
ltoes 68.4511
99
root 9.3798 17.5966 19.7653 -66.9948 -87.5444 -285.563
lowerback 7.32908 7.6801 4.08818
upperback -5.85091 10.5911 -2.24213
thorax -9.14703 4.78788 -6.14053
lowerneck -9.27495 15.8964 12.86
upperneck 11.463 21.5174 -11.768
head 7.70163 10.1365 -3.31256
rclavicle 5.61939e-014 1.59028e-015
rhumerus -19.217 55.7683 -107.408
rradius 83.6648
rwrist 4.83783
rhand -4.22526 -55.7093
rfingers 7.12502
rthumb 21.5376 -84.5317
lclavicle 5.61939e-014 1.59028e-015
lhumerus -40.6433 -7.02014 76.6292
lradius 25.8001
lwrist -37.6908
lhand 20.7327 -23.6239
lfingers 7.12502
lthumb 45.217 -0.210295
rfemur -0.382499 10.7665 30.041
rtibia 14.7143
rfoot -43.9708 -39.344
rtoes 65.2165
lfemur -16.3903 -30.7077 -19.2922
ltibia 17.5307
lfoot -29.0579 -2.95888
ltoes 69.6008
100
root 9.33928 17.8087 19.7407 -18.7714 -83.0807 -333.406
lowerback 6.83355 7.56376 4.31468
upperback -6.09139 10.4118 -2.61479
thorax -9.03394 4.67675 -6.57346
lowerneck -8.15387 16.8584 13.7076
upperneck 11.6557 23.0122 -12.3761
head 7.93798 10.8771 -3.42042
rclavicle -8.17253e-014 1.39149e-014
rhumerus -21.4571 55.0729 -108.917
rradius 83.36
rwrist 6.18025
rhand -5.06636 -54.678
rfingers 7.12502
rthumb 20.7297 -83.5908
lclavicle -8.17253e-014 1.39149e-014
lhumerus -39.6318 -7.46551 77.5908
lradius 25.5926
lwrist -37.4258
lhand 23.3322 -24.042
lfingers 7.12502
lthumb 47.6257 -1.65637
rfemur -1.22326 11.6247 29.2414
rtibia 15.0248
rfoot -26.9854 -43.588
rtoes 62.949
lfemur -16.1687 -27.5321 -20.434
ltibia 17.9274
lfoot -31.7553 -4.28857
ltoes 69.0868
